PathFileType	4	(X/Y/Z)	Static_1_OpenSim.trc																																																																																																																						
DataRate	CameraRate	NumFrames	NumMarkers	Units	OrigDataRate	OrigDataStartFrame	OrigNumFrames																																																																																																																		
100	100	10	40	mm	100	387	619																																																																																																																		
Frame#	Time	R.ASIS			R.PSIS			S2			L.PSIS			L.ASIS			R.TH1			R.TH2			R.TH3			R.MKnee			R.Knee			R.SH1			R.SH2			R.SH3			R.SH4			R.Ankle			R.MAnkle			R.Heel			R.MT5			R.MT1			L.TH1			L.TH2			L.TH3			L.TH4			L.MKnee			L.Knee			L.SH1			L.SH2			L.SH3			L.Ankle			L.MAnkle			L.Heel			L.MT5			L.MT1			R.Acr			L.Acr			C7			T10			Clav			Sternum			R.Back		
		X1	Y1	Z1	X2	Y2	Z2	X3	Y3	Z3	X4	Y4	Z4	X5	Y5	Z5	X6	Y6	Z6	X7	Y7	Z7	X8	Y8	Z8	X9	Y9	Z9	X10	Y10	Z10	X11	Y11	Z11	X12	Y12	Z12	X13	Y13	Z13	X14	Y14	Z14	X15	Y15	Z15	X16	Y16	Z16	X17	Y17	Z17	X18	Y18	Z18	X19	Y19	Z19	X20	Y20	Z20	X21	Y21	Z21	X22	Y22	Z22	X23	Y23	Z23	X24	Y24	Z24	X25	Y25	Z25	X26	Y26	Z26	X27	Y27	Z27	X28	Y28	Z28	X29	Y29	Z29	X30	Y30	Z30	X31	Y31	Z31	X32	Y32	Z32	X33	Y33	Z33	X34	Y34	Z34	X35	Y35	Z35	X36	Y36	Z36	X37	Y37	Z37	X38	Y38	Z38	X39	Y39	Z39	X40	Y40	Z40
387	3.86	890.977	1070.9658	-434.4907	684.29	1078.7355	-536.5711	675.2435	1076.1366	-582.4631	688.7889	1081.6363	-633.0081	888.9052	1068.1267	-726.5165	851.9932	739.5903	-398.2188	770.1991	738.2534	-396.4917	770.9665	629.0316	-405.0895	812.3079	502.4722	-520.3988	791.6423	513.5595	-407.0656	789.1422	349.8938	-391.6031	792.1252	238.3445	-402.8909	706.8544	350.0652	-400.1544	711.0552	236.3409	-402.156	725.3655	78.0028	-402.3697	789.6824	92.7963	-480.5759	685.9049	37.0556	-474.6248	823.8138	37.9009	-336.0804	898.0709	39.5787	-404.2961	872.5217	766.5422	-753.746	860.0701	658.6854	-751.3602	789.6863	772.3713	-766.6154	780.4329	662.9262	-756.0225	824.223	501.2535	-643.9051	812.9457	518.221	-752.0292	799.5295	392.0256	-782.7379	717.701	398.9088	-773.2045	711.5548	289.3144	-774.9945	752.2902	83.8261	-797.2844	798.1055	91.3868	-703.4275	696.2549	43.6184	-734.7916	854.9712	33.1626	-833.347	911.0332	45.1475	-741.4168	810.3909	1488.6078	-431.2589	793.3845	1478.8276	-728.7615	758.8127	1506.2495	-580.8183	742.3718	1180.8651	-579.8253	899.6187	1418.0161	-584.0931	932.8922	1273.4591	-573.8218	681.8702	1403.3887	-500.7408
388	3.87	890.8703	1070.9545	-434.5137	684.1916	1078.7694	-536.5814	675.1322	1076.1571	-582.4776	688.6819	1081.6609	-633.0282	888.7851	1068.1162	-726.5536	851.8695	739.6013	-398.2347	770.0175	738.2672	-396.5275	770.8232	629.0444	-405.1308	812.313	502.4856	-520.4491	791.5303	513.5779	-407.0963	789.0549	349.9022	-391.6227	792.0559	238.3639	-402.8892	706.7714	350.0404	-400.1144	710.9545	236.3568	-402.1154	725.3647	77.9968	-402.3527	789.6705	92.7868	-480.5711	685.9032	37.047	-474.6277	823.8164	37.8996	-336.085	898.0678	39.5808	-404.2885	872.3848	766.5187	-753.7757	859.975	658.692	-751.3483	789.5339	772.3491	-766.6481	780.3046	662.919	-756.0484	824.1428	501.2243	-643.968	812.8412	518.2463	-752.0406	799.4926	392.0202	-782.7911	717.6269	398.8851	-773.2159	711.4672	289.311	-775.0024	752.2993	83.8225	-797.2893	798.0764	91.3869	-703.4305	696.251	43.6104	-734.795	854.977	33.1622	-833.3492	911.0493	45.1408	-741.4247	810.4698	1488.6085	-431.2757	793.4919	1478.8755	-728.7623	758.9193	1506.2985	-580.8246	742.3145	1180.9082	-579.8497	899.6771	1417.9871	-584.0928	932.8816	1273.4037	-573.8408	681.8845	1403.4639	-500.7711
389	3.88	890.7649	1070.9463	-434.5335	684.0875	1078.8052	-536.5888	675.029	1076.1746	-582.4858	688.5745	1081.6831	-633.046	888.6661	1068.108	-726.5883	851.7483	739.6056	-398.2604	769.8225	738.2847	-396.5649	770.6815	629.0559	-405.1714	812.306	502.496	-520.4919	791.4244	513.5951	-407.1257	788.9627	349.9087	-391.6513	791.9896	238.379	-402.8796	706.6877	350.0193	-400.0926	710.855	236.3743	-402.0734	725.3639	77.9914	-402.3388	789.6536	92.7713	-480.5645	685.9026	37.0382	-474.6315	823.8195	37.8977	-336.0888	898.0649	39.5825	-404.2809	872.2504	766.5138	-753.8041	859.8692	658.6924	-751.3481	789.3934	772.3277	-766.6764	780.1758	662.9163	-756.067	824.079	501.1874	-644.0397	812.7456	518.2659	-752.0522	799.4534	392.0129	-782.8347	717.5615	398.8632	-773.2245	711.3869	289.3082	-775.0096	752.3144	83.8199	-797.2943	798.0498	91.3873	-703.4327	696.2465	43.6042	-734.7966	854.9835	33.1626	-833.35	911.0602	45.1328	-741.4315	810.5477	1488.6121	-431.2909	793.5942	1478.9169	-728.7687	759.0184	1506.3463	-580.8331	742.2553	1180.9517	-579.8708	899.7341	1417.9598	-584.0967	932.8738	1273.3543	-573.859	681.9057	1403.5361	-500.8076
390	3.89	890.6609	1070.9418	-434.5501	683.9764	1078.8424	-536.5942	674.9328	1076.1899	-582.4886	688.4675	1081.7033	-633.0626	888.5475	1068.1031	-726.6199	851.623	739.6011	-398.2926	769.6196	738.3058	-396.6024	770.5405	629.0659	-405.2096	812.2792	502.5077	-520.5236	791.324	513.612	-407.1537	788.8676	349.9141	-391.6864	791.9285	238.3875	-402.8598	706.6068	350.0027	-400.0862	710.7572	236.3933	-402.0303	725.3618	77.9874	-402.3374	789.6291	92.7525	-480.5565	685.9025	37.0305	-474.635	823.8217	37.8968	-336.0913	898.062	39.5842	-404.2753	872.1196	766.5283	-753.8297	859.7557	658.691	-751.3582	789.2659	772.3085	-766.6996	780.048	662.9183	-756.0794	824.0255	501.1481	-644.1138	812.6581	518.2795	-752.0644	799.4099	392.0061	-782.8668	717.5035	398.8444	-773.2305	711.3152	289.3058	-775.0156	752.3345	83.8185	-797.2987	798.0252	91.3884	-703.4332	696.2445	43.5982	-734.7976	854.9872	33.165	-833.3494	911.064	45.1257	-741.4366	810.6236	1488.619	-431.3034	793.6912	1478.953	-728.7809	759.11	1506.3933	-580.8439	742.194	1180.9949	-579.8893	899.7899	1417.9355	-584.1034	932.8679	1273.312	-573.8771	681.9334	1403.6062	-500.8479
391	3.9	890.558	1070.9412	-434.5638	683.8575	1078.8804	-536.5985	674.8424	1076.2036	-582.4868	688.3619	1081.7216	-633.0786	888.4286	1068.101	-726.6477	851.4878	739.5852	-398.3298	769.4166	738.3293	-396.6387	770.4008	629.0743	-405.2447	812.2347	502.5234	-520.5427	791.2291	513.6298	-407.1801	788.7727	349.9192	-391.7252	791.8746	238.3879	-402.8282	706.5319	349.9903	-400.0907	710.6547	236.4162	-401.9796	725.3575	77.985	-402.3524	789.5967	92.7326	-480.5469	685.902	37.0242	-474.6371	823.8221	37.8977	-336.0924	898.0585	39.5867	-404.2722	871.993	766.5598	-753.8505	859.6391	658.6917	-751.3753	789.1511	772.2925	-766.7174	779.9238	662.9243	-756.0879	823.975	501.1126	-644.1821	812.5776	518.2881	-752.0762	799.3622	392.0011	-782.8878	717.4515	398.8288	-773.2344	711.2518	289.3037	-775.0203	752.3572	83.8179	-797.3016	798.0024	91.3907	-703.4319	696.2461	43.5918	-734.7986	854.9863	33.1695	-833.3481	911.0598	45.1208	-741.4393	810.6964	1488.6293	-431.3119	793.7843	1478.9857	-728.7978	759.1943	1506.4397	-580.8563	742.1318	1181.0367	-579.9053	899.8442	1417.9147	-584.1119	932.8628	1273.2773	-573.8954	681.9661	1403.6747	-500.8891
392	3.91	890.4565	1070.944	-434.5751	683.7314	1078.9181	-536.6032	674.757	1076.2159	-582.4808	688.2574	1081.738	-633.0948	888.3095	1068.0997	-726.6712	851.3405	739.5551	-398.3728	769.2222	738.3538	-396.6728	770.2637	629.0811	-405.2764	812.1816	502.5443	-520.5494	791.141	513.6494	-407.2042	788.6827	349.9239	-391.7638	791.8298	238.3812	-402.7877	706.4665	349.982	-400.1009	710.5434	236.445	-401.9164	725.3514	77.9845	-402.3813	789.5594	92.714	-480.5365	685.9012	37.019	-474.6382	823.8209	37.9005	-336.0928	898.0548	39.5891	-404.2724	871.8716	766.6031	-753.865	859.5244	658.6959	-751.3963	789.0477	772.2793	-766.7301	779.8069	662.9324	-756.0949	823.9215	501.0847	-644.2378	812.503	518.2925	-752.0861	799.3109	391.9979	-782.8993	717.404	398.8156	-773.2364	711.1952	289.3022	-775.0233	752.3783	83.8175	-797.3025	797.9824	91.3945	-703.4291	696.2483	43.5869	-734.7985	854.981	33.1753	-833.3467	911.048	45.1187	-741.4397	810.7649	1488.6421	-431.3161	793.875	1479.0158	-728.8174	759.2717	1506.4853	-580.8682	742.0697	1181.0769	-579.9192	899.8963	1417.8962	-584.1219	932.8578	1273.2492	-573.914	682.0019	1403.7419	-500.9286
393	3.92	890.3571	1070.949	-434.5845	683.6005	1078.9536	-536.61	674.676	1076.2269	-582.4721	688.1538	1081.7529	-633.112	888.1911	1068.0974	-726.6901	851.1816	739.5088	-398.4211	769.0441	738.377	-396.7037	770.1312	629.0873	-405.3041	812.131	502.5697	-520.5444	791.0618	513.6712	-407.2256	788.6036	349.9273	-391.7979	791.7952	238.3714	-402.7471	706.4134	349.9771	-400.1129	710.4306	236.4773	-401.8454	725.3445	77.9855	-402.416	789.5236	92.6984	-480.5267	685.8998	37.0147	-474.6392	823.8196	37.9044	-336.0928	898.0519	39.5901	-404.2764	871.7573	766.6526	-753.8729	859.4153	658.7024	-751.4177	788.9545	772.2679	-766.7389	779.7003	662.9405	-756.1023	823.8632	501.0655	-644.2775	812.433	518.2933	-752.0928	799.2565	391.9946	-782.903	717.3598	398.8038	-773.2369	711.1435	289.3018	-775.0252	752.3919	83.8166	-797.3013	797.9663	91.3992	-703.4262	696.2464	43.5867	-734.7959	854.9739	33.1811	-833.3457	911.0303	45.1184	-741.4382	810.828	1488.6571	-431.3174	793.9645	1479.0436	-728.8383	759.3428	1506.5303	-580.8783	742.0085	1181.1152	-579.9314	899.9453	1417.8784	-584.1328	932.8522	1273.2246	-573.9324	682.0386	1403.8081	-500.9651
394	3.93	890.261	1070.9556	-434.5925	683.4672	1078.9858	-536.6199	674.5987	1076.236	-582.4622	688.0505	1081.7656	-633.131	888.075	1068.0935	-726.7043	851.0146	739.4495	-398.4694	768.8876	738.3974	-396.7304	770.0048	629.0944	-405.3272	812.0922	502.5984	-520.5294	790.9935	513.6957	-407.2433	788.5414	349.9284	-391.8229	791.7705	238.3639	-402.7185	706.3738	349.9748	-400.1237	710.33	236.5083	-401.7768	725.3387	77.9869	-402.4456	789.4948	92.6863	-480.5182	685.8982	37.011	-474.6404	823.8195	37.9087	-336.0928	898.0512	39.5886	-404.2839	871.653	766.7047	-753.8738	859.3137	658.7095	-751.436	788.8695	772.2575	-766.7445	779.6054	662.9471	-756.1099	823.8007	501.0548	-644.3005	812.3668	518.2911	-752.096	799.1998	391.9897	-782.9005	717.3176	398.7925	-773.2355	711.0947	289.3027	-775.0261	752.3959	83.8145	-797.2985	797.9553	91.4038	-703.4243	696.2381	43.592	-734.7903	854.9681	33.1855	-833.345	911.0087	45.1187	-741.4352	810.885	1488.6735	-431.3186	794.0533	1479.0696	-728.8577	759.4085	1506.5745	-580.8857	741.9478	1181.1519	-579.9418	899.9908	1417.8601	-584.1437	932.846	1273.2008	-573.9498	682.0745	1403.8732	-500.9987
395	3.94	890.1696	1070.9629	-434.5989	683.3333	1079.014	-536.6327	674.5242	1076.2423	-582.4524	687.9476	1081.776	-633.1522	887.9634	1068.0887	-726.7143	850.845	739.3882	-398.5067	768.7537	738.4145	-396.752	769.886	629.1034	-405.3447	812.0712	502.6288	-520.5059	790.938	513.7236	-407.2567	788.5002	349.9269	-391.8358	791.755	238.3633	-402.7117	706.348	349.9741	-400.1311	710.2513	236.5343	-401.718	725.3353	77.9878	-402.4613	789.4764	92.6776	-480.5116	685.8967	37.008	-474.6421	823.8213	37.9126	-336.0935	898.0531	39.5849	-404.2941	871.561	766.756	-753.8702	859.2202	658.7159	-751.449	788.7907	772.249	-766.7475	779.5225	662.9515	-756.116	823.736	501.0514	-644.3084	812.3043	518.2873	-752.0958	799.1418	391.9824	-782.893	717.2767	398.7814	-773.2312	711.0485	289.3041	-775.0263	752.3946	83.8108	-797.2945	797.9493	91.4073	-703.424	696.2256	43.6003	-734.7836	854.9655	33.1878	-833.3445	910.9862	45.119	-741.4311	810.9358	1488.6904	-431.3219	794.142	1479.0944	-728.8732	759.4699	1506.6179	-580.8907	741.887	1181.1865	-579.95	900.0325	1417.8417	-584.1532	932.8391	1273.1755	-573.9647	682.1086	1403.9374	-501.0293
396	3.95	890.083	1070.9708	-434.6036	683.201	1079.0375	-536.6479	674.4518	1076.2452	-582.4443	687.8453	1081.7833	-633.1753	887.858	1068.085	-726.7203	850.678	739.3402	-398.52	768.6403	738.4292	-396.7667	769.7759	629.1157	-405.3562	812.0707	502.6594	-520.4758	790.8954	513.756	-407.2652	788.4804	349.9231	-391.8365	791.7468	238.3712	-402.7302	706.3346	349.9738	-400.134	710.2013	236.5527	-401.6746	725.3349	77.987	-402.4591	789.4706	92.6728	-480.5083	685.8954	37.0055	-474.6437	823.8251	37.9159	-336.095	898.0577	39.5796	-404.3057	871.4819	766.8016	-753.8666	859.1351	658.7215	-751.4561	788.7167	772.244	-766.7477	779.4507	662.9541	-756.1176	823.6704	501.0534	-644.3034	812.2453	518.2828	-752.0925	799.0839	391.9732	-782.8812	717.2364	398.7707	-773.223	711.0058	289.3041	-775.0254	752.3945	83.8058	-797.29	797.9473	91.4087	-703.4249	696.214	43.607	-734.7787	854.9669	33.1884	-833.3436	910.9678	45.1194	-741.4262	810.9813	1488.7069	-431.3281	794.2302	1479.1183	-728.8832	759.5283	1506.6602	-580.8939	741.8254	1181.2194	-579.9551	900.0705	1417.8245	-584.1602	932.8313	1273.1478	-573.9762	682.1405	1404.0008	-501.0566
